<?xml version="1.0" encoding="utf-8"?><!DOCTYPE svg PUBLIC "-//W3C//DTD SVG 1.1//EN" "http://www.w3.org/Graphics/SVG/1.1/DTD/svg11.dtd"><svg xmlns="http://www.w3.org/2000/svg" xmlns:xlink="http://www.w3.org/1999/xlink" id="preview" width="600" height="600" viewBox="0 0 600 600" xunitlength="47" yunitlength="470" xmin="0" xmax="10" ymin="0" ymax="1" ox="40" oy="40"><defs><style type="text/css">@import url("http://cdnjs.cloudflare.com/ajax/libs/KaTeX/0.2.0/katex.min.css")</style></defs><path d="M22,560 528,560 M40,72 40,578 M40,567.25 40,552.75 M87,567.25 87,552.75 M134,567.25 134,552.75 M181,567.25 181,552.75 M228,567.25 228,552.75 M275,567.25 275,552.75 M322,567.25 322,552.75 M369,567.25 369,552.75 M416,567.25 416,552.75 M463,567.25 463,552.75 M510,567.25 510,552.75 M47.25,560 32.75,560 M47.25,513 32.75,513 M47.25,466 32.75,466 M47.25,419 32.75,419 M47.25,372 32.75,372 M47.25,325 32.75,325 M47.25,278 32.75,278 M47.25,231 32.75,231 M47.25,184 32.75,184 M47.25,137 32.75,137 M47.25,90 32.75,90" stroke-width="2" stroke="black" fill="none"></path><text id="null" x="87" y="591" font-style="" font-family="KaTeX_Main, serif" font-size="29" font-weight="normal" text-anchor="middle" fill="black" stroke-width="0px">1</text><text id="null" x="134" y="591" font-style="" font-family="KaTeX_Main, serif" font-size="29" font-weight="normal" text-anchor="middle" fill="black" stroke-width="0px">2</text><text id="null" x="181" y="591" font-style="" font-family="KaTeX_Main, serif" font-size="29" font-weight="normal" text-anchor="middle" fill="black" stroke-width="0px">3</text><text id="null" x="228" y="591" font-style="" font-family="KaTeX_Main, serif" font-size="29" font-weight="normal" text-anchor="middle" fill="black" stroke-width="0px">4</text><text id="null" x="275" y="591" font-style="" font-family="KaTeX_Main, serif" font-size="29" font-weight="normal" text-anchor="middle" fill="black" stroke-width="0px">5</text><text id="null" x="322" y="591" font-style="" font-family="KaTeX_Main, serif" font-size="29" font-weight="normal" text-anchor="middle" fill="black" stroke-width="0px">6</text><text id="null" x="369" y="591" font-style="" font-family="KaTeX_Main, serif" font-size="29" font-weight="normal" text-anchor="middle" fill="black" stroke-width="0px">7</text><text id="null" x="416" y="591" font-style="" font-family="KaTeX_Main, serif" font-size="29" font-weight="normal" text-anchor="middle" fill="black" stroke-width="0px">8</text><text id="null" x="463" y="591" font-style="" font-family="KaTeX_Main, serif" font-size="29" font-weight="normal" text-anchor="middle" fill="black" stroke-width="0px">9</text><text id="null" x="510" y="591" font-style="" font-family="KaTeX_Main, serif" font-size="29" font-weight="normal" text-anchor="middle" fill="black" stroke-width="0px">10</text><text id="null" x="28.333" y="522.666" font-style="" font-family="KaTeX_Main, serif" font-size="29" font-weight="normal" text-anchor="end" fill="black" stroke-width="0px">0.1</text><text id="null" x="28.333" y="475.666" font-style="" font-family="KaTeX_Main, serif" font-size="29" font-weight="normal" text-anchor="end" fill="black" stroke-width="0px">0.2</text><text id="null" x="28.333" y="428.666" font-style="" font-family="KaTeX_Main, serif" font-size="29" font-weight="normal" text-anchor="end" fill="black" stroke-width="0px">0.3</text><text id="null" x="28.333" y="381.666" font-style="" font-family="KaTeX_Main, serif" font-size="29" font-weight="normal" text-anchor="end" fill="black" stroke-width="0px">0.4</text><text id="null" x="28.333" y="334.666" font-style="" font-family="KaTeX_Main, serif" font-size="29" font-weight="normal" text-anchor="end" fill="black" stroke-width="0px">0.5</text><text id="null" x="28.333" y="287.666" font-style="" font-family="KaTeX_Main, serif" font-size="29" font-weight="normal" text-anchor="end" fill="black" stroke-width="0px">0.6</text><text id="null" x="28.333" y="240.666" font-style="" font-family="KaTeX_Main, serif" font-size="29" font-weight="normal" text-anchor="end" fill="black" stroke-width="0px">0.7</text><text id="null" x="28.333" y="193.666" font-style="" font-family="KaTeX_Main, serif" font-size="29" font-weight="normal" text-anchor="end" fill="black" stroke-width="0px">0.8</text><text id="null" x="28.333" y="146.666" font-style="" font-family="KaTeX_Main, serif" font-size="29" font-weight="normal" text-anchor="end" fill="black" stroke-width="0px">0.9</text><text id="null" x="28.333" y="99.666" font-style="" font-family="KaTeX_Main, serif" font-size="29" font-weight="normal" text-anchor="end" fill="black" stroke-width="0px">1</text><text id="null" x="40" y="42.333" font-style="italic" font-family="KaTeX_Main, serif" font-size="29" font-weight="normal" text-anchor="middle" fill="black" stroke-width="0px">y</text><text id="null" x="557.666" y="569.666" font-style="italic" font-family="KaTeX_Main, serif" font-size="29" font-weight="normal" text-anchor="start" fill="black" stroke-width="0px">x</text><path id="null" d="M87,98.453 87.704,98.578 88.409,98.706 89.114,98.835 89.819,98.966 90.524,99.099 91.229,99.233 91.934,99.370 92.639,99.509 93.344,99.650 94.049,99.793 94.754,99.937 95.459,100.084 96.164,100.234 96.869,100.385 97.574,100.538 98.279,100.694 98.984,100.852 99.689,101.012 100.394,101.174 101.099,101.339 101.804,101.506 102.509,101.676 103.214,101.848 103.919,102.022 104.624,102.199 105.329,102.379 106.034,102.561 106.739,102.746 107.444,102.933 108.149,103.123 108.854,103.316 109.559,103.511 110.264,103.710 110.969,103.911 111.674,104.115 112.379,104.321 113.084,104.531 113.789,104.744 114.494,104.960 115.199,105.178 115.904,105.400 116.609,105.625 117.314,105.853 118.019,106.085 118.724,106.320 119.429,106.557 120.134,106.799 120.839,107.043 121.544,107.292 122.249,107.543 122.954,107.798 123.659,108.057 124.364,108.319 125.069,108.585 125.774,108.855 126.479,109.128 127.184,109.405 127.889,109.686 128.594,109.971 129.299,110.260 130.004,110.553 130.709,110.850 131.414,111.150 132.119,111.456 132.824,111.765 133.529,112.078 134.234,112.396 134.939,112.718 135.644,113.045 136.349,113.376 137.054,113.711 137.759,114.051 138.464,114.396 139.169,114.745 139.874,115.099 140.579,115.458 141.284,115.821 141.989,116.190 142.694,116.563 143.399,116.942 144.104,117.325 144.809,117.714 145.514,118.108 146.219,118.507 146.924,118.911 147.629,119.321 148.334,119.736 149.039,120.156 149.744,120.583 150.449,121.014 151.154,121.452 151.859,121.895 152.564,122.344 153.269,122.798 153.974,123.259 154.679,123.725 155.384,124.198 156.089,124.677 156.794,125.162 157.499,125.653 158.204,126.150 158.909,126.654 159.614,127.164 160.319,127.681 161.024,128.204 161.729,128.734 162.434,129.270 163.139,129.813 163.844,130.363 164.549,130.920 165.254,131.484 165.959,132.055 166.664,132.633 167.369,133.218 168.074,133.810 168.779,134.410 169.484,135.017 170.189,135.631 170.894,136.253 171.599,136.882 172.304,137.519 173.009,138.164 173.714,138.816 174.419,139.476 175.124,140.144 175.829,140.820 176.534,141.504 177.239,142.196 177.944,142.896 178.649,143.604 179.354,144.321 180.059,145.045 180.764,145.779 181.469,146.520 182.174,147.270 182.879,148.029 183.584,148.796 184.289,149.572 184.994,150.357 185.699,151.150 186.404,151.953 187.109,152.764 187.814,153.584 188.519,154.413 189.224,155.252 189.929,156.099 190.634,156.956 191.339,157.822 192.044,158.697 192.749,159.582 193.454,160.475 194.159,161.379 194.864,162.292 195.569,163.214 196.274,164.146 196.979,165.087 197.684,166.039 198.389,167.000 199.094,167.970 199.799,168.951 200.504,169.941 201.209,170.941 201.914,171.951 202.619,172.971 203.324,174.001 204.029,175.041 204.734,176.090 205.439,177.150 206.144,178.220 206.849,179.300 207.554,180.390 208.259,181.490 208.964,182.601 209.669,183.721 210.374,184.852 211.079,185.992 211.784,187.143 212.489,188.304 213.194,189.475 213.899,190.657 214.604,191.848 215.309,193.050 216.014,194.262 216.719,195.484 217.424,196.716 218.129,197.959 218.834,199.211 219.539,200.474 220.244,201.746 220.949,203.029 221.654,204.322 222.359,205.625 223.064,206.937 223.769,208.260 224.474,209.592 225.179,210.935 225.884,212.287 226.589,213.649 227.294,215.020 227.999,216.402 228.704,217.793 229.409,219.193 230.114,220.603 230.819,222.022 231.524,223.451 232.229,224.889 232.934,226.336 233.639,227.793 234.344,229.258 235.049,230.733 235.754,232.216 236.459,233.708 237.164,235.209 237.869,236.718 238.574,238.236 239.279,239.763 239.984,241.298 240.689,242.841 241.394,244.392 242.099,245.951 242.804,247.518 243.509,249.093 244.214,250.675 244.919,252.265 245.624,253.862 246.329,255.467 247.034,257.079 247.739,258.697 248.444,260.323 249.149,261.955 249.854,263.594 250.559,265.240 251.264,266.891 251.969,268.549 252.674,270.213 253.379,271.882 254.084,273.558 254.789,275.238 255.494,276.925 256.199,278.616 256.904,280.312 257.609,282.013 258.314,283.719 259.019,285.430 259.724,287.144 260.429,288.863 261.134,290.586 261.839,292.312 262.544,294.043 263.249,295.776 263.954,297.513 264.659,299.253 265.364,300.996 266.069,302.741 266.774,304.489 267.479,306.239 268.184,307.991 268.889,309.746 269.594,311.501 270.299,313.259 271.004,315.018 271.709,316.777 272.414,318.538 273.119,320.300 273.824,322.062 274.529,323.824 275.234,325.587 275.939,327.349 276.644,329.111 277.349,330.873 278.054,332.634 278.759,334.394 279.464,336.153 280.169,337.911 280.874,339.667 281.579,341.422 282.284,343.175 282.989,344.926 283.694,346.675 284.399,348.421 285.104,350.165 285.809,351.906 286.514,353.643 287.219,355.378 287.924,357.109 288.629,358.837 289.334,360.561 290.039,362.281 290.744,363.997 291.449,365.709 292.154,367.417 292.859,369.119 293.564,370.817 294.269,372.510 294.974,374.198 295.679,375.881 296.384,377.558 297.089,379.229 297.794,380.895 298.499,382.555 299.204,384.209 299.909,385.856 300.614,387.497 301.319,389.132 302.024,390.760 302.729,392.381 303.434,393.995 304.139,395.602 304.844,397.202 305.549,398.794 306.254,400.379 306.959,401.956 307.664,403.526 308.369,405.088 309.074,406.641 309.779,408.187 310.484,409.725 311.189,411.254 311.894,412.775 312.599,414.287 313.304,415.791 314.009,417.286 314.714,418.772 315.419,420.250 316.124,421.718 316.829,423.177 317.534,424.628 318.239,426.069 318.944,427.501 319.649,428.923 320.354,430.336 321.059,431.740 321.764,433.134 322.469,434.519 323.174,435.893 323.879,437.259 324.584,438.614 325.289,439.960 325.994,441.295 326.699,442.621 327.404,443.937 328.109,445.243 328.814,446.539 329.519,447.825 330.224,449.101 330.929,450.367 331.634,451.623 332.339,452.869 333.044,454.105 333.749,455.330 334.454,456.545 335.159,457.750 335.864,458.945 336.569,460.130 337.274,461.305 337.979,462.469 338.684,463.624 339.389,464.768 340.094,465.902 340.799,467.026 341.504,468.139 342.209,469.243 342.914,470.336 343.619,471.419 344.324,472.493 345.029,473.556 345.734,474.609 346.439,475.652 347.144,476.685 347.849,477.709 348.554,478.722 349.259,479.725 349.964,480.719 350.669,481.702 351.374,482.676 352.079,483.641 352.784,484.595 353.489,485.540 354.194,486.475 354.899,487.400 355.604,488.316 356.309,489.223 357.014,490.120 357.719,491.008 358.424,491.886 359.129,492.755 359.834,493.615 360.539,494.465 361.244,495.307 361.949,496.139 362.654,496.962 363.359,497.776 364.064,498.582 364.769,499.378 365.474,500.166 366.179,500.945 366.884,501.715 367.589,502.476 368.294,503.229 368.999,503.974 369.704,504.710 370.409,505.437 371.114,506.157 371.819,506.868 372.524,507.570 373.229,508.265 373.934,508.952 374.639,509.630 375.344,510.301 376.049,510.964 376.754,511.618 377.459,512.266 378.164,512.905 378.869,513.537 379.574,514.161 380.279,514.778 380.984,515.387 381.689,515.989 382.394,516.584 383.099,517.171 383.804,517.752 384.509,518.325 385.214,518.891 385.919,519.450 386.624,520.003 387.329,520.548 388.034,521.087 388.739,521.619 389.444,522.144 390.149,522.663 390.854,523.175 391.559,523.681 392.264,524.181 392.969,524.674 393.674,525.161 394.379,525.642 395.084,526.116 395.789,526.585 396.494,527.048 397.199,527.504 397.904,527.955 398.609,528.400 399.314,528.839 400.019,529.273 400.724,529.701 401.429,530.123 402.134,530.540 402.839,530.952 403.544,531.358 404.249,531.759 404.954,532.154 405.659,532.544 406.364,532.930 407.069,533.310 407.774,533.685 408.479,534.055 409.184,534.420 409.889,534.781 410.594,535.136 411.299,535.487 412.004,535.833 412.709,536.175 413.414,536.512 414.119,536.844 414.824,537.172 415.529,537.496 416.234,537.815 416.939,538.130 417.644,538.441 418.349,538.747 419.054,539.049 419.759,539.348 420.464,539.642 421.169,539.932 421.874,540.218 422.579,540.500 423.284,540.779 423.989,541.053 424.694,541.324 425.399,541.591 426.104,541.855 426.809,542.115 427.514,542.371 428.219,542.624 428.924,542.873 429.629,543.119 430.334,543.361 431.039,543.600 431.744,543.836 432.449,544.069 433.154,544.298 433.859,544.524 434.564,544.747 435.269,544.967 435.974,545.183 436.679,545.397 437.384,545.608 438.089,545.816 438.794,546.021 439.499,546.223 440.204,546.422 440.909,546.618 441.614,546.812 442.319,547.003 443.024,547.191 443.729,547.377 444.434,547.560 445.139,547.740 445.844,547.918 446.549,548.093 447.254,548.266 447.959,548.436 448.664,548.604 449.369,548.770 450.074,548.933 450.779,549.094 451.484,549.253 452.189,549.409 452.894,549.563 453.599,549.715 454.304,549.865 455.009,550.013 455.714,550.158 456.419,550.302 457.124,550.443 457.829,550.583 458.534,550.720 459.239,550.856 459.944,550.989 460.649,551.121 461.354,551.250 462.059,551.378 462.764,551.504 463.469,551.629 464.174,551.751 464.879,551.872 465.584,551.991 466.289,552.108 466.994,552.223 467.699,552.337 468.404,552.450 469.109,552.560 469.814,552.669 470.519,552.777 471.224,552.883 471.929,552.987 472.634,553.090 473.339,553.191 474.044,553.291 474.749,553.390 475.454,553.487 476.159,553.582 476.864,553.676 477.569,553.769 478.274,553.861 478.979,553.951 479.684,554.040 480.389,554.128 481.094,554.214 481.799,554.299 482.504,554.383 483.209,554.466 483.914,554.547 484.619,554.627 485.324,554.706 486.029,554.784 486.734,554.861 487.439,554.937 488.144,555.011 488.849,555.085 489.554,555.157 490.259,555.229 490.964,555.299 491.669,555.368 492.374,555.436 493.079,555.504 493.784,555.570 494.489,555.635 495.194,555.700 495.899,555.763 496.604,555.826 497.309,555.887 498.014,555.948 498.719,556.008 499.424,556.067 500.129,556.125 500.834,556.182 501.539,556.238 502.244,556.294 502.949,556.349 503.654,556.403 504.359,556.456 505.064,556.508 505.769,556.560 506.474,556.611 507.179,556.661 507.884,556.710 508.589,556.759 509.294,556.807 509.999,556.854 510.704,556.900 511.409,556.946 512.114,556.991 512.819,557.036 513.524,557.080 514.229,557.123 514.934,557.165 515.639,557.207 516.344,557.249 517.049,557.289 517.754,557.330 518.459,557.369 519.164,557.408 519.869,557.446 520.574,557.484 521.279,557.521 521.984,557.558 522.689,557.594 " stroke-width="5" stroke="blue" fill="none"></path></svg>